<svg xmlns="http://www.w3.org/2000/svg" xmlns:xlink="http://www.w3.org/1999/xlink" xmlns:lucid="lucid" width="1634" height="1014"><g transform="translate(0 -137)" lucid:page-tab-id="6uJi8JsDlIho"><path d="M0 0h1634.27v1280H0z" fill="#fff"/><path d="M811.8 283.37c4-1.86 10.5-1.86 14.5 0l115.5 53.56c4 1.86 4 4.87 0 6.73l-115.5 53.56c-4 1.86-10.5 1.86-14.5 0l-115.5-53.56c-4-1.86-4-4.87 0-6.73z" stroke="#333" stroke-width="3" fill="#fff"/><use xlink:href="#a" transform="matrix(1,0,0,1,694.0533463462291,285) translate(41.755000000000024 59.49375)"/><use xlink:href="#b" transform="matrix(1,0,0,1,694.0533463462291,285) translate(90.51700000000001 59.49375)"/><use xlink:href="#c" transform="matrix(1,0,0,1,694.0533463462291,285) translate(189.04899999999998 59.49375)"/><path d="M947.6 340.3h37.05c.08 0 .14-.07.14-.15 0-.08.06-.15.14-.15h17.93" stroke="#333" stroke-width="3" fill="none"/><path d="M947.63 341.8h-1.66l.33-.4-.48-2.6h1.8z" fill="#333"/><path d="M1018.64 340l-14.27 4.64v-9.28z" stroke="#333" stroke-width="3" fill="#333"/><use xlink:href="#d" transform="matrix(1,0,0,1,940.5376559973665,316.9606690520321) translate(0.004999999999999005 14.4)"/><path d="M754.13 188c0-4.42 3.58-8 8-8h113.85c4.42 0 8 3.58 8 8v44c0 4.42-3.58 8-8 8H762.13c-4.42 0-8-3.58-8-8z" stroke="#333" stroke-width="3" fill="#fff"/><use xlink:href="#e" transform="matrix(1,0,0,1,766.128947252649,192) translate(23.534000000000002 14.4)"/><use xlink:href="#f" transform="matrix(1,0,0,1,766.128947252649,192) translate(20.087000000000003 33.732)"/><path d="M819.05 243v17" stroke="#333" stroke-width="3" fill="none"/><path d="M820.55 243.04h-3v-1.54h3z" fill="#333"/><path d="M819.05 275.78l-4.63-14.27h9.27z" stroke="#333" stroke-width="3" fill="#333"/><path d="M1144.9 283.32c4.02-1.83 10.54-1.83 14.56 0l117.12 53.36c4.02 1.83 4.02 4.8 0 6.64l-117.12 53.36c-4.02 1.83-10.54 1.83-14.56 0l-117.12-53.36c-4.02-1.83-4.02-4.8 0-6.64z" stroke="#333" stroke-width="3" fill="#fff"/><use xlink:href="#g" transform="matrix(1,0,0,1,1025.5,285) translate(74.296 59.0875)"/><use xlink:href="#h" transform="matrix(1,0,0,1,1025.5,285) translate(123.508 59.0875)"/><path d="M1152.18 400.9v36.96" stroke="#333" stroke-width="3" fill="none"/><path d="M1153.68 400.92h-3v-1.5l3-.08z" fill="#333"/><path d="M1152.18 453.63l-4.63-14.27h9.27z" stroke="#333" stroke-width="3" fill="#333"/><use xlink:href="#d" transform="matrix(1,0,0,1,1108.721337019355,408.51018281918624) translate(0.004999999999999005 14.4)"/><path d="M1282.37 340H1338.38" stroke="#333" stroke-width="3" fill="none"/><path d="M1282.4 341.5h-1.6l.27-.3-.44-2.7h1.78z" fill="#333"/><path d="M1354.14 340l-14.26 4.64v-9.28z" stroke="#333" stroke-width="3" fill="#333"/><use xlink:href="#i" transform="matrix(1,0,0,1,1289.4112840496184,316.66800000007584) translate(0.005000000000000782 14.4)"/><path d="M1144.9 461.18c4.02-1.83 10.54-1.83 14.56 0l117.12 53.37c4.02 1.83 4.02 4.8 0 6.63l-117.12 53.37c-4.02 1.83-10.54 1.83-14.56 0l-117.12-53.37c-4.02-1.83-4.02-4.8 0-6.63z" stroke="#333" stroke-width="3" fill="#fff"/><use xlink:href="#j" transform="matrix(1,0,0,1,1025.5,462.8667115274883) translate(34.25500000000001 59.0875)"/><use xlink:href="#k" transform="matrix(1,0,0,1,1025.5,462.8667115274883) translate(147.061 59.0875)"/><path d="M1282.37 517.87H1338.38" stroke="#333" stroke-width="3" fill="none"/><path d="M1282.4 519.37h-1.6l.27-.3-.44-2.7h1.78z" fill="#333"/><path d="M1354.14 517.87l-14.26 4.63v-9.27z" stroke="#333" stroke-width="3" fill="#333"/><use xlink:href="#d" transform="matrix(1,0,0,1,1295.323821915423,494.5347115275641) translate(0.004999999999999005 14.4)"/><path d="M1152.18 578.75v119.13" stroke="#333" stroke-width="3" fill="none"/><path d="M1153.68 578.8h-3v-1.5l3-.1z" fill="#333"/><path d="M1152.18 713.64l-4.63-14.26h9.27z" stroke="#333" stroke-width="3" fill="#333"/><use xlink:href="#i" transform="matrix(1,0,0,1,1118.1893370193548,624.315775971357) translate(0.005000000000000782 14.4)"/><path d="M1360.5 480.57c0-4.4 3.58-8 8-8h144c4.42 0 8 3.6 8 8v74.6c0 4.4-3.58 8-8 8h-144c-4.42 0-8-3.6-8-8z" stroke="#333" stroke-width="3" fill="#fff"/><use xlink:href="#l" transform="matrix(1,0,0,1,1372.5,484.5740424755316) translate(42.413000000000004 29.05625)"/><use xlink:href="#m" transform="matrix(1,0,0,1,1372.5,484.5740424755316) translate(8.411000000000008 48.38825)"/><path d="M478.65 283.9c4.02-1.83 10.53-1.83 14.56 0l117.13 53.37c4.02 1.83 4.02 4.8 0 6.63L493.2 397.27c-4.02 1.83-10.53 1.83-14.55 0L361.52 343.9c-4.02-1.83-4.02-4.8 0-6.63z" stroke="#333" stroke-width="3" fill="#fff"/><use xlink:href="#g" transform="matrix(1,0,0,1,359.2440186008939,285.58533810406414) translate(74.296 59.0875)"/><use xlink:href="#h" transform="matrix(1,0,0,1,359.2440186008939,285.58533810406414) translate(123.508 59.0875)"/><path d="M690.5 340.3h-36.87c-.16 0-.3.12-.3.3 0 .15-.12.28-.3.28H635.3" stroke="#333" stroke-width="3" fill="none"/><path d="M691.8 339.17l.48 2.62h-1.8v-3h1.65z" fill="#333"/><path d="M619.52 340.88l14.26-4.63v9.27z" stroke="#333" stroke-width="3" fill="#333"/><use xlink:href="#i" transform="matrix(1,0,0,1,640.3030112091519,316.9707988771508) translate(0.005000000000000782 14.4)"/><path d="M485.93 401.47V460" stroke="#333" stroke-width="3" fill="none"/><path d="M487.43 401.5h-3v-1.48l3-.1z" fill="#333"/><path d="M485.93 475.76l-4.64-14.27h9.26z" stroke="#333" stroke-width="3" fill="#333"/><use xlink:href="#d" transform="matrix(1,0,0,1,493.92535562024864,410.42863905997655) translate(0.004999999999999005 14.4)"/><path d="M355.74 340.6H309.9c-.15 0-.28-.15-.28-.3 0-.17-.13-.3-.3-.3h-26.7" stroke="#333" stroke-width="3" fill="none"/><path d="M357.04 339.37l.44 2.72h-1.78v-3h1.6z" fill="#333"/><path d="M266.85 340l14.27-4.64v9.28z" stroke="#333" stroke-width="3" fill="#333"/><use xlink:href="#i" transform="matrix(1,0,0,1,296.65955850591087,316.6780898214224) translate(0.005000000000000782 14.4)"/><path d="M100.5 298c0-4.42 3.58-8 8-8h144c4.42 0 8 3.58 8 8v84c0 4.42-3.58 8-8 8h-144c-4.42 0-8-3.58-8-8z" stroke="#333" stroke-width="3" fill="#fff"/><use xlink:href="#n" transform="matrix(1,0,0,1,112.5,302) translate(49.028000000000006 42.9)"/><path d="M478.65 483.32c4.02-1.83 10.53-1.83 14.56 0l117.13 53.36c4.02 1.83 4.02 4.8 0 6.64L493.2 596.68c-4.02 1.83-10.53 1.83-14.55 0l-117.13-53.36c-4.02-1.83-4.02-4.8 0-6.64z" stroke="#333" stroke-width="3" fill="#fff"/><use xlink:href="#o" transform="matrix(1,0,0,1,359.2440186008939,485) translate(65.76400000000001 59.0875)"/><use xlink:href="#k" transform="matrix(1,0,0,1,359.2440186008939,485) translate(115.552 59.0875)"/><path d="M485.93 600.9V697.87" stroke="#333" stroke-width="3" fill="none"/><path d="M487.43 600.92h-3v-1.5l3-.08z" fill="#333"/><path d="M485.93 713.64l-4.64-14.26h9.26z" stroke="#333" stroke-width="3" fill="#333"/><use xlink:href="#d" transform="matrix(1,0,0,1,493.92535562024864,638.0588335186497) translate(0.004999999999999005 14.4)"/><path d="M355.74 540h-73.12" stroke="#333" stroke-width="3" fill="none"/><path d="M357.04 538.8l.44 2.7h-1.78v-3h1.6z" fill="#333"/><path d="M266.86 540l14.26-4.64v9.28z" stroke="#333" stroke-width="3" fill="#333"/><use xlink:href="#i" transform="matrix(1,0,0,1,301.9266084148805,516.6680000000757) translate(0.005000000000000782 14.4)"/><path d="M405.93 728c0-4.42 3.58-8 8-8h144c4.4 0 8 3.58 8 8v84.6c0 4.4-3.6 8-8 8h-144c-4.42 0-8-3.6-8-8z" stroke="#333" stroke-width="3" fill="#fff"/><use xlink:href="#p" transform="matrix(1,0,0,1,410.92535564667594,725) translate(24.519000000000005 51.36875)"/><use xlink:href="#q" transform="matrix(1,0,0,1,410.92535564667594,725) translate(81.03899999999999 51.36875)"/><path d="M100.5 498c0-4.42 3.58-8 8-8h144c4.42 0 8 3.58 8 8v84c0 4.42-3.58 8-8 8h-144c-4.42 0-8-3.58-8-8z" stroke="#333" stroke-width="3" fill="#fff"/><use xlink:href="#r" transform="matrix(1,0,0,1,105.5,495) translate(34.02300000000001 50.9625)"/><use xlink:href="#s" transform="matrix(1,0,0,1,105.5,495) translate(82.767 50.9625)"/><use xlink:href="#c" transform="matrix(1,0,0,1,105.5,495) translate(96.771 50.9625)"/><path d="M100.5 728.3c0-4.43 3.58-8 8-8h144c4.42 0 8 3.57 8 8v84c0 4.4-3.58 8-8 8h-144c-4.42 0-8-3.6-8-8z" stroke="#333" stroke-width="3" fill="#fff"/><use xlink:href="#t" transform="matrix(1,0,0,1,105.5,725.2926690520321) translate(58.215 50.9625)"/><path d="M180.5 593v105.17" stroke="#333" stroke-width="3" fill="none"/><path d="M182 593.04h-3v-1.54h3z" fill="#333"/><path d="M180.5 713.94l-4.64-14.27h9.28z" stroke="#333" stroke-width="3" fill="#333"/><path d="M1360.5 298c0-4.42 3.58-8 8-8h144c4.42 0 8 3.58 8 8v84c0 4.42-3.58 8-8 8h-144c-4.42 0-8-3.58-8-8z" stroke="#333" stroke-width="3" fill="#fff"/><use xlink:href="#n" transform="matrix(1,0,0,1,1372.5,302) translate(49.028000000000006 42.9)"/><path d="M1072.18 728c0-4.42 3.58-8 8-8h144c4.42 0 8 3.58 8 8v84c0 4.42-3.58 8-8 8h-144c-4.42 0-8-3.58-8-8z" stroke="#333" stroke-width="3" fill="#fff"/><use xlink:href="#n" transform="matrix(1,0,0,1,1084.1813370198001,732) translate(49.028000000000006 42.9)"/><path d="M740.5 1068c0-4.42 3.58-8 8-8h113.85c4.42 0 8 3.58 8 8v24c0 4.42-3.58 8-8 8H748.5c-4.42 0-8-3.58-8-8z" stroke="#333" stroke-width="3" fill="#fff"/><use xlink:href="#u" transform="matrix(1,0,0,1,752.5,1071.9999999999668) translate(0.2150000000000034 14.4)"/><use xlink:href="#f" transform="matrix(1,0,0,1,752.5,1071.9999999999668) translate(39.958999999999996 14.4)"/><path d="M97.5 340H71c-6.63 0-12 5.37-12 12v716c0 6.63 5.37 12 12 12h647.38" stroke="#333" stroke-width="3" fill="none"/><path d="M99 341.5h-1.54v-3H99z" fill="#333"/><path d="M734.15 1080l-14.27 4.64v-9.28z" stroke="#333" stroke-width="3" fill="#333"/><path d="M180.5 823.3V1068c0 6.63 5.37 12 12 12h525.88" stroke="#333" stroke-width="3" fill="none"/><path d="M182 823.33h-3v-1.54h3z" fill="#333"/><path d="M734.15 1080l-14.27 4.64v-9.28z" stroke="#333" stroke-width="3" fill="#333"/><path d="M485.93 823.6v104.7c0 6.62 5.37 12 12 12h295.5c6.62 0 12 5.37 12 12v85.58" stroke="#333" stroke-width="3" fill="none"/><path d="M487.43 823.62h-3v-1.53h3z" fill="#333"/><path d="M805.42 1053.65l-4.63-14.27h9.26z" stroke="#333" stroke-width="3" fill="#333"/><path d="M1152.18 823v105c0 6.63-5.37 12-12 12H817.42c-6.62 0-12 5.37-12 12v85.88" stroke="#333" stroke-width="3" fill="none"/><path d="M1153.68 823.04h-3v-1.54h3z" fill="#333"/><path d="M805.42 1053.65l-4.63-14.27h9.26z" stroke="#333" stroke-width="3" fill="#333"/><path d="M1523.5 517.87h26.5c6.63 0 12 5.37 12 12V1068c0 6.63-5.37 12-12 12H892.47" stroke="#333" stroke-width="3" fill="none"/><path d="M1523.54 519.37H1522v-3h1.54z" fill="#333"/><path d="M876.7 1080l14.27-4.64v9.28z" stroke="#333" stroke-width="3" fill="#333"/><path d="M1523.5 340h26.5c6.63 0 12 5.37 12 12v716c0 6.63-5.37 12-12 12H892.47" stroke="#333" stroke-width="3" fill="none"/><path d="M1523.54 341.5H1522v-3h1.54z" fill="#333"/><path d="M876.7 1080l14.27-4.64v9.28z" stroke="#333" stroke-width="3" fill="#333"/><g class="lucid-layer" lucid:layer-id="7uJiKbyGOxPI" display="none"><path d="M1339.5 560c21 0 38 17.9 38 40s-17 40-38 40h-114c-21 0-38-17.9-38-40s17-40 38-40z" stroke="#000" stroke-opacity="0" stroke-width="2" fill="#ff8839"/><use xlink:href="#v" transform="matrix(1,0,0,1,1192.3000000000118,564.8) translate(32.925000000000004 39.7875)"/><use xlink:href="#w" transform="matrix(1,0,0,1,1192.3000000000118,564.8) translate(102.875 39.7875)"/><path d="M1282.5 640.5v64.3" stroke="#666" fill="none"/><path d="M1283 640.5h-1v-.5h1z" fill="#666"/><path d="M1282.5 719.56l-4.64-14.26h9.28z" stroke="#666" fill="#666"/><path d="M1276.55 725.35c3.3-2.95 8.6-2.95 11.9 0l88.1 79.3c3.3 2.95 3.3 7.75 0 10.7l-88.1 79.3c-3.3 2.95-8.6 2.95-11.9 0l-88.1-79.3c-3.3-2.95-3.3-7.75 0-10.7z" stroke="#fe5900" stroke-width="4" fill="#fff"/><use xlink:href="#x" transform="matrix(1,0,0,1,1187.3000000000118,724.7999999999668) translate(63.475 89.2125)"/><path d="M1381.5 810h62.42" stroke="#666" fill="none"/><path d="M1381.5 810.5h-.55l.07-.97v-.03h.48z" fill="#666"/><path d="M1458.68 810l-14.26 4.64v-9.28z" stroke="#666" fill="#666"/><path d="M1460.3 758c0-4.42 3.58-8 8-8h157.97c4.4 0 8 3.58 8 8v104c0 4.42-3.6 8-8 8H1468.3c-4.42 0-8-3.58-8-8z" stroke="#000" stroke-opacity="0" stroke-width="2" fill="#ff9e56"/><use xlink:href="#y" transform="matrix(1,0,0,1,1465.1024036256829,754.7999999999668) translate(24.925000000000004 59.225)"/><use xlink:href="#z" transform="matrix(1,0,0,1,1465.1024036256829,754.7999999999668) translate(94.875 59.225)"/><path d="M1282.5 899.32v45.48" stroke="#666" fill="none"/><path d="M1283 899.33h-1v-.47l1-.08z" fill="#666"/><path d="M1282.5 959.56l-4.64-14.26h9.28z" stroke="#666" fill="#666"/><path d="M1276.55 965.35c3.3-2.95 8.6-2.95 11.9 0l88.1 79.3c3.3 2.95 3.3 7.75 0 10.7l-88.1 79.3c-3.3 2.95-8.6 2.95-11.9 0l-88.1-79.3c-3.3-2.95-3.3-7.75 0-10.7z" stroke="#fe5900" stroke-width="4" fill="#fff"/><path d="M1282.5 1139.32v44.3" stroke="#666" fill="none"/><path d="M1283 1139.33h-1v-.47l1-.08z" fill="#666"/><path d="M1282.5 1198.38l-4.64-14.26h9.28z" stroke="#666" fill="#666"/><path d="M1183.5 1050h-34.2c-.1 0-.16.07-.16.16 0 .08-.07.15-.16.15h-18.33" stroke="#666" fill="none"/><path d="M1183.98 1050.47v.03h-.48v-1h.55z" fill="#666"/><path d="M1115.88 1050.3l14.27-4.62v9.27z" stroke="#666" fill="#666"/><path d="M940.3 997.7c0-4.4 3.58-8 8-8h157.97c4.4 0 8 3.6 8 8v105.2c0 4.43-3.6 8-8 8H948.3c-4.42 0-8-3.57-8-8z" stroke="#000" stroke-opacity="0" stroke-width="2" fill="#ff9e56"/><path d="M1027.28 1111.4V1228c0 6.63 5.38 12 12 12h131.84" stroke="#666" fill="none"/><path d="M1027.78 1111.43h-1v-.52h1z" fill="#666"/><path d="M1185.88 1240l-14.26 4.64v-9.28z" stroke="#666" fill="#666"/><path d="M1547.28 749.5V702c0-6.63-5.37-12-12-12H1294.5c-6.63 0-12 5.37-12 12v2.8" stroke="#666" fill="none"/><path d="M1547.78 750h-1v-.5h1z" fill="#666"/><path d="M1282.5 719.56l-4.64-14.26h9.28z" stroke="#666" fill="#666"/><path d="M793.63 391.07c0-4.42 3.58-8 8-8h30.67c4.42 0 8 3.58 8 8v.2c0 4.43-3.58 8-8 8h-30.67c-4.42 0-8-3.57-8-8z" stroke="#000" stroke-opacity="0" stroke-width="2" fill="#ff9e56"/><path d="M840.3 367.92h100v42h-100z" stroke="#000" stroke-opacity="0" stroke-width="2" fill="#fff" fill-opacity="0"/><use xlink:href="#A" transform="matrix(1,0,0,1,845.302403625677,372.92283810404615) translate(19.549999999999997 20.5875)"/><g stroke="#000" stroke-opacity="0" stroke-width="2"><path d="M1032.62 417.87V252.54h60v165.33z" fill-opacity="0"/><path d="M1032.62 417.87v-66.13h60v66.13z" fill="#ff9e56"/></g><g stroke="#000" stroke-opacity="0" stroke-width="2"><path d="M1279.14 419.7V254.38h60V419.7z" fill-opacity="0"/><path d="M1279.14 419.7v-33.06h60v33.06z" fill="#ff9e56"/></g><g stroke="#000" stroke-opacity="0" stroke-width="2"><path d="M1527.34 419.28V253.95h60v165.33z" fill-opacity="0"/><path d="M1527.34 419.28V303.55h60v115.73z" fill="#ff9e56"/></g><path d="M1032.62 417.87h60v60h-60z" stroke="#000" stroke-opacity="0" stroke-width="2" fill="#fff" fill-opacity="0"/><use xlink:href="#B" transform="matrix(1,0,0,1,1037.6164887914622,422.8667115274883) translate(2.3500000000000014 30.025)"/><path d="M1279.14 420.6h60v60h-60z" stroke="#000" stroke-opacity="0" stroke-width="2" fill="#fff" fill-opacity="0"/><use xlink:href="#B" transform="matrix(1,0,0,1,1284.1373259084487,425.58533810406414) translate(2.3500000000000014 30.025)"/><path d="M1527.86 419.3h58.97v60h-58.97z" stroke="#000" stroke-opacity="0" stroke-width="2" fill="#fff" fill-opacity="0"/><use xlink:href="#B" transform="matrix(1,0,0,1,1532.8607715574658,424.2890976234273) translate(1.8500000000000014 30.025)"/><path d="M341.33 314.56h80v46.73h-80z" stroke="#000" stroke-opacity="0" stroke-width="2" fill="#fff"/><use xlink:href="#C" transform="matrix(1,0,0,1,346.33071113709315,319.55839343886015) translate(5.802469135802468 22.40277777777778)"/><path d="M940.3 507.7c0-4.4 3.58-8 8-8H1612c4.42 0 8 3.6 8 8v25.17c0 4.42-3.58 8-8 8H948.3c-4.42 0-8-3.58-8-8z" stroke="#000" stroke-opacity="0" stroke-width="2" fill="#a5a7aa"/><use xlink:href="#D" transform="matrix(1,0,0,1,945.3024036256829,504.71275833780885) translate(246.08641975308643 20.22222222222222)"/><use xlink:href="#E" transform="matrix(1,0,0,1,945.3024036256829,504.71275833780885) translate(302.28395061728395 20.22222222222222)"/><use xlink:href="#F" transform="matrix(1,0,0,1,945.3024036256829,504.71275833780885) translate(345.74074074074076 20.22222222222222)"/><path d="M241.05 367.92h277.3V440h-277.3z" stroke="#000" stroke-opacity="0" stroke-width="2" fill="#fff" fill-opacity="0"/><g><use xlink:href="#G" transform="matrix(1,0,0,1,246.04612682219107,372.92283810404615) translate(5.175000000000011 26.2125)"/><use xlink:href="#H" transform="matrix(1,0,0,1,246.04612682219107,372.92283810404615) translate(99.97500000000002 26.2125)"/><use xlink:href="#I" transform="matrix(1,0,0,1,246.04612682219107,372.92283810404615) translate(119.97500000000002 26.2125)"/><use xlink:href="#J" transform="matrix(1,0,0,1,246.04612682219107,372.92283810404615) translate(162.925 26.2125)"/><use xlink:href="#K" transform="matrix(1,0,0,1,246.04612682219107,372.92283810404615) translate(192.925 26.2125)"/><use xlink:href="#L" transform="matrix(1,0,0,1,246.04612682219107,372.92283810404615) translate(23.10000000000001 47.8125)"/><use xlink:href="#M" transform="matrix(1,0,0,1,246.04612682219107,372.92283810404615) translate(57.05000000000001 47.8125)"/><use xlink:href="#N" transform="matrix(1,0,0,1,246.04612682219107,372.92283810404615) translate(107.05000000000001 47.8125)"/><use xlink:href="#O" transform="matrix(1,0,0,1,246.04612682219107,372.92283810404615) translate(161.05 47.8125)"/><use xlink:href="#P" transform="matrix(1,0,0,1,246.04612682219107,372.92283810404615) translate(179 47.8125)"/></g><path d="M280.33 361.3c0-55.24 44.77-100 100-100s100 44.76 100 100h-30c0-38.67-31.34-70-70-70s-70 31.33-70 70z" stroke="#000" stroke-opacity="0" stroke-width="2" fill="#ffeadb"/><path d="M280.33 361.3c0-55.24 44.77-100 100-100 22.1 0 40.9 6.1 58.78 19.1l-17.62 24.26c-12.5-9.1-25.7-13.37-41.15-13.37-38.66 0-70 31.33-70 70z" stroke="#000" stroke-opacity="0" stroke-width="2" fill="#ff9e56"/></g><defs><path fill="#333" d="M420-750c13-14 37-57 70-50 50 0 75 34 71 103L524-47c-6 47-50 72-97 46-45-26-24-111-24-178 0-43 4-90 6-134 1-32-5-53-18-62-64 6-126 12-190 19-17 2-25 19-26 52-3 96 24 301-59 298-21 0-40-8-59-24-13-17-17-37-11-58-18-108 2-241 2-365 0-94 5-153 6-177 4-100 28-150 73-150 102 0 57 175 57 272 0 29 24 28 56 24 24-3 149-7 162-24 19-26 11-94 13-141" id="Q"/><path fill="#333" d="M103-24C79 10-2-14 8-59c42-186 129-353 193-524 23-62 63-135 99-197 39-38 106-10 109 47 27 100 51 209 81 307 8 25 72 24 72 63 0 44-26 46-37 75 12 83 46 156 55 243 7 63-106 47-114 11-13-58-36-170-57-231-3-4-7-8-9-14-69 4-134 40-198 52-53 21-53 108-81 160-4 16-8 29-18 43zm215-551c-16 18-92 195-73 208 46 2 100-12 123-31-5-30-32-162-38-171-2-3-6-5-12-6" id="R"/><path fill="#333" d="M109-735c-25-57-110-11-99 37 30 130 91 291 122 410 18 69 44 132 72 190 44 90 75 116 148 73 102-105 149-290 208-441 32-82 48-168 48-261 0-51-15-77-46-77-38 0-59 34-73 100-35 160-89 312-149 454-40 95-58 66-91-37-28-90-54-179-79-263-24-79-42-141-61-185" id="S"/><path fill="#333" d="M330-158c82-22 193-18 286-31 38 11 58 81 24 113-25 24-71 25-116 25-135 0-238 34-358 47C61 7 4-52 15-159c12-113 37-213 32-340-2-59 2-121-2-178-2-44 35-62 81-61 104-31 222-52 345-64 68-7 103 34 111 94 2 12-3 22-9 31-33 14-62 15-103 16-100 2-196 10-270 40h-8c-18 23-11 79-15 106-1 13 5 22 16 25 82-10 176-25 264-12 44 7 78 26 71 72-7 49-76 30-125 30-78 0-138 22-210 29-24 1-35 28-36 52-2 41-10 83-8 126-19 84 122 51 181 35" id="T"/><g id="a"><use transform="matrix(0.018,0,0,0.018,0,0)" xlink:href="#Q"/><use transform="matrix(0.018,0,0,0.018,9.792,0)" xlink:href="#R"/><use transform="matrix(0.018,0,0,0.018,20.357999999999997,0)" xlink:href="#S"/><use transform="matrix(0.018,0,0,0.018,31.427999999999997,0)" xlink:href="#T"/></g><path fill="#333" d="M382-556c-3 158-18 304-18 470 0 31 6 72-21 86-20 35-87 21-104-6-1-188 14-367 23-549 1-24 13-80-17-80-77 0-131 31-210 31-15-10-43-18-33-45 0-82 83-94 148-109 103-23 215-12 315-40 43-12 91-17 142-23 62-8 95 53 77 116-8 28-47 14-75 18-68 9-134 10-195 30-32 11-31 60-32 101" id="U"/><path fill="#333" d="M608-642l-20 77c-36 56-69 94-113 138-49 48-58 40-29 81 33 46 69 89 97 147 44 89 52 141 40 147-3 38-20 49-63 52-68 5-97-106-129-160-40-68-56-162-144-164-53-1-27 78-45 121-7 56-12 123-28 170C157-4 113 24 66-1 46-11 40-39 49-87c19-111 19-139 19-313 0-144 1-187-40-242-27-37-13-94 26-108 103-36 250-59 389-41 63 8 182 85 165 149zm-140 11c-10-39-42-58-96-57-53 12-154 21-179 43-5 9-8 31-8 65 0 151 19 135 127 94 94-36 148-79 156-145" id="V"/><path fill="#333" d="M292-638c-67 2-113 14-176 21-81 9-112-68-58-103 132-46 304-52 470-66l65 5c50 52 43 111-50 111-45 0-75 15-112 18-18 16-19 83-24 152-7 108-21 214-33 322-5 46 36 20 67 20 54 0 81-10 139-16 43 25 50 62 23 110-151 29-311 50-490 79C58 24-8 22 3-44c14-83 161-45 224-90 22-16 24-69 29-107 17-126 33-258 36-397" id="W"/><path fill="#333" d="M21-302C-7-136 9 24 196-12c147-28 263-93 386-142 57-23 26-120-26-120-111 32-240 115-378 126-13 1-22-26-25-45 30-174 59-350 88-524 10-62-86-124-120-61-39 73-49 196-69 277-19 77-22 145-31 199" id="X"/><path fill="#333" d="M24-128c0-158-18-313-5-472 6-74-11-192 62-191 78 1 88 68 113 130 59 143 102 191 174 297 50 73 81 109 92 109 8 0 12-3 13-9 24-163 3-322-12-477-6-63 62-76 101-37 65 64 45 212 54 340 10 141 7 304-15 413-8 15-20 23-37 23-76 0-203-132-244-200-33-54-79-109-116-169l4 4c-9-20-41-55-54-51-14 102-5 244 6 344 3 30-15 69-41 68-9 0-28-1-56-3-44-28-39-45-39-119" id="Y"/><path fill="#333" d="M590-683c0-95-64-132-148-103-62 21-113 58-161 92-97 69-165 165-223 275C-45-222 51 11 277-12c154-16 257-81 343-160 63-58 100-126 109-243 12-155-158-93-246-67-61 18-178 69-168 115-2 30 28 68 54 64 69-10 133-52 201-67 9-2 20 9 20 17 0 11-18 38-57 79-85 91-188 136-306 136-55 0-99-68-99-127 0-30 16-69 37-123 25-64 237-288 318-281 25-8 66 40 79 44 19 0 28-19 28-58" id="Z"/><g id="b"><use transform="matrix(0.018,0,0,0.018,0,0)" xlink:href="#U"/><use transform="matrix(0.018,0,0,0.018,12.347999999999999,0)" xlink:href="#V"/><use transform="matrix(0.018,0,0,0.018,23.471999999999998,0)" xlink:href="#R"/><use transform="matrix(0.018,0,0,0.018,34.038,0)" xlink:href="#W"/><use transform="matrix(0.018,0,0,0.018,45.467999999999996,0)" xlink:href="#X"/><use transform="matrix(0.018,0,0,0.018,56.538,0)" xlink:href="#W"/><use transform="matrix(0.018,0,0,0.018,67.96799999999999,0)" xlink:href="#Y"/><use transform="matrix(0.018,0,0,0.018,79.506,0)" xlink:href="#Z"/></g><path fill="#333" d="M290-540c44-9 50-55 22-99-24-37-35-128-35-168 0-51-85-47-94-6-4 21-6 39-6 53-3 62 52 233 113 220zm-165 31c52 3 45-76 21-109-29-40-38-106-47-161-28-49-103-18-87 51 19 80 23 156 71 197 16 14 29 22 42 22" id="aa"/><path fill="#333" d="M11-110C-14-66 45-13 76-8c17 2 29-20 35-34 46-87 86-151 130-233 80-148 195-281 286-421 44-66-51-145-100-70C284-548 148-351 11-110" id="ab"/><g id="c"><use transform="matrix(0.018,0,0,0.018,0,0)" xlink:href="#aa"/><use transform="matrix(0.018,0,0,0.018,2.3939999999999997,0)" xlink:href="#ab"/><use transform="matrix(0.018,0,0,0.018,13.085999999999999,0)" xlink:href="#aa"/></g><path fill="#333" d="M192-85c-3 48 46 100 89 72 52-75 73-232 102-321 46-139 146-233 278-374 22-37 2-105-46-93-81 20-199 174-252 246-53 73-46 65-110 7-63-57-96-136-132-220-11-25-31-37-54-37-36-1-56 32-56 68 32 142 118 264 224 332 15 16 24 24 21 38" id="ac"/><path fill="#333" d="M371-533c189 0 256 55 239 237-9 91-67 138-157 205C374-33 301-7 236-7 155-7 13-82 18-160c3-44 62-73 96-38 43 44 152 73 218 29 77-51 166-125 156-169 2-44-67-63-119-62-47 1-108 1-155 3C87-393 13-429 1-531c11-87 101-150 165-187 90-52 160-96 290-87 34 2 118 78 115 115-3 35-23 38-55 45-15 4-26-4-33-24-37-64-116-1-164 12-41 11-154 77-154 113 0 15 14 22 41 22 45 0 127-11 165-11" id="ad"/><g id="d"><use transform="matrix(0.018,0,0,0.018,0,0)" xlink:href="#ac"/><use transform="matrix(0.018,0,0,0.018,12.113999999999999,0)" xlink:href="#T"/><use transform="matrix(0.018,0,0,0.018,24.101999999999997,0)" xlink:href="#ad"/></g><path fill="#333" d="M371-533c189 0 256 55 239 237-9 91-67 138-157 205C374-33 301-7 236-7 155-7 13-82 18-160c3-44 62-73 96-38 43 44 152 73 218 29 77-51 166-125 156-169 2-44-67-63-119-62-47 1-108 1-155 3C87-393 13-429 1-531c11-87 101-150 165-187 90-52 160-96 290-87 34 2 118 78 115 115-3 35-23 38-55 45-15 4-26-4-33-24-37-64-116-1-164 12-41 11-154 77-154 113 0 15 14 22 41 22 45 0 127-11 165-11" id="ae"/><path fill="#333" d="M593-790c58 0 99 54 77 117-5 13-15 16-35 14-70-7-152-3-229 7-31 20-24 81-26 127-4 138-16 277-16 422 0 32 4 70-21 83-26 36-88 7-103-20 1-182 10-346 21-521 2-27 11-81-18-84-73-7-138 11-206 3-20-18-39-18-32-51-3-78 74-91 145-91 129 0 251 6 369-8 25-3 49 2 74 2" id="af"/><g id="e"><use transform="matrix(0.018,0,0,0.018,0,0)" xlink:href="#ae"/><use transform="matrix(0.018,0,0,0.018,11.357999999999999,0)" xlink:href="#af"/><use transform="matrix(0.018,0,0,0.018,24.299999999999997,0)" xlink:href="#R"/><use transform="matrix(0.018,0,0,0.018,34.866,0)" xlink:href="#V"/><use transform="matrix(0.018,0,0,0.018,45.989999999999995,0)" xlink:href="#af"/></g><path fill="#333" d="M19-91c0-222 71-428 58-668-3-62 121-44 170-33 118 27 229 50 293 128 44 53 63 97 63 217 0 165-189 328-383 400-36 13-62 45-108 45-66 0-93-23-93-89zm185-582c-30 151-43 322-58 489 5 39 27 28 60 14 129-54 276-147 276-304 0-155-106-203-278-199" id="ag"/><g id="f"><use transform="matrix(0.018,0,0,0.018,0,0)" xlink:href="#Q"/><use transform="matrix(0.018,0,0,0.018,9.792,0)" xlink:href="#R"/><use transform="matrix(0.018,0,0,0.018,20.357999999999997,0)" xlink:href="#Y"/><use transform="matrix(0.018,0,0,0.018,31.895999999999994,0)" xlink:href="#ag"/><use transform="matrix(0.018,0,0,0.018,42.767999999999994,0)" xlink:href="#X"/><use transform="matrix(0.018,0,0,0.018,53.837999999999994,0)" xlink:href="#T"/></g><path fill="#333" d="M39-49c-7-93 9-204-6-289-18-30-12-41 1-77 37-27 19-97 25-162 2-23-27-37-49-40-11-18-14-56 0-71 17-39 273-99 376-109 72-7 163-32 165 45 1 65-62 51-115 66-63 18-176 24-229 55-41 23-20 107-25 176 83-2 166-25 259-33 74-6 91 70 44 97-80 23-228 35-304 57-18 6-27 18-27 35-9 45 6 274-42 299-35 2-92-5-73-49" id="ah"/><g id="g"><use transform="matrix(0.018,0,0,0.018,0,0)" xlink:href="#ae"/><use transform="matrix(0.018,0,0,0.018,11.357999999999999,0)" xlink:href="#R"/><use transform="matrix(0.018,0,0,0.018,21.924,0)" xlink:href="#ah"/><use transform="matrix(0.018,0,0,0.018,31.878,0)" xlink:href="#T"/></g><path fill="#333" d="M23-677c-68-88 127-122 212-122 113 0 253 24 291 82 92 144-48 310-153 365-52 27-102 48-161 69-56 20-53 15-58 80-4 49-8 103-13 153-3 31-19 46-43 46-44 0-65-28-63-81 5-162 8-330 16-486 3-53-4-75-28-106zm415 73c0-44-44-66-132-66-78 0-124 8-135 26-10 16-14 89-14 218 0 44 22 39 57 25 83-34 224-115 224-203" id="ai"/><path fill="#333" d="M107-780c100 15 51 176 51 272 0 29 23 25 56 24 33-11 175 4 171-42 9-67 4-153 14-224 12-14 39-57 70-50 51 0 74 34 69 103L490-47c-6 28-25 57-57 56-118-5-54-182-54-299 0-34 3-75-15-85-65 6-127 12-191 19-52 29-23 162-29 239C135-7 87 19 22-30 10-48 7-67 13-88c-16-100 8-215 8-322 0-127-9-364 86-370" id="aj"/><path fill="#333" d="M103-360c0-112 97-112 179-128 97-18 242-75 249-136 6-48-42-75-151-71-112 4-194 15-276 54-32 15-101 31-94-24 35-105 323-159 505-131 75 11 164 108 120 200-57 118-164 168-297 220-46 18-100 9-130 40-14 46-42 100-66 94-26 0-39-39-39-118zm112 214c60 54-29 135-88 135-48 0-65-33-51-98 18-31 37-56 89-54 19 0 36 5 50 17" id="ak"/><g id="h"><use transform="matrix(0.018,0,0,0.018,0,0)" xlink:href="#ai"/><use transform="matrix(0.018,0,0,0.018,10.152,0)" xlink:href="#R"/><use transform="matrix(0.018,0,0,0.018,20.718,0)" xlink:href="#af"/><use transform="matrix(0.018,0,0,0.018,33.66,0)" xlink:href="#aj"/><use transform="matrix(0.018,0,0,0.018,43.397999999999996,0)" xlink:href="#ak"/></g><path fill="#333" d="M24-128c0-158-18-313-5-472 6-74-11-192 62-191 78 1 88 68 113 130 59 143 102 191 174 297 50 73 81 109 92 109 8 0 12-3 13-9 24-163 3-322-12-477-6-63 62-76 101-37 65 64 45 212 54 340 10 141 7 304-15 413-8 15-20 23-37 23-76 0-203-132-244-200-33-54-79-109-116-169l4 4c-9-20-41-55-54-51-14 102-5 244 6 344 3 30-15 69-41 68-9 0-28-1-56-3-44-28-39-45-39-119" id="al"/><path fill="#333" d="M44-443c79-191 208-366 448-366 141 0 239 118 267 253 46 222-61 413-213 490-83 42-221 78-338 30-55-23-106-43-129-82-26-14-80-140-57-202 2-41 8-89 22-123zm103 115c1 136 75 191 208 191 130 0 180-50 241-135 38-53 55-111 55-169 0-109-73-236-179-227-143 12-260 151-311 271-9 24-14 47-14 69" id="am"/><g id="i"><use transform="matrix(0.018,0,0,0.018,0,0)" xlink:href="#al"/><use transform="matrix(0.018,0,0,0.018,11.537999999999998,0)" xlink:href="#am"/></g><path fill="#333" d="M19-91c0-222 71-428 58-668-3-62 121-44 170-33 118 27 229 50 293 128 44 53 63 97 63 217 0 165-189 328-383 400-36 13-62 45-108 45-66 0-93-23-93-89zm185-582c-30 151-43 322-58 489 5 39 27 28 60 14 129-54 276-147 276-304 0-155-106-203-278-199" id="an"/><path fill="#333" d="M521-275c40-33 108-24 108 34 0 49-75 103-210 183-80 47-247 72-323 10-66-54-95-101-82-218 12-106 41-136 91-224 55-96 145-209 240-278 32-23 68-33 107-33 86 2 108 61 107 158 0 55-15 82-44 82-55 1-25-116-79-110-132 15-229 223-291 334-48 86-31 226 81 218 122-9 217-92 295-156" id="ao"/><path fill="#333" d="M192-85c-3 48 46 100 89 72 52-75 73-232 102-321 46-139 146-233 278-374 22-37 2-105-46-93-81 20-199 174-252 246-53 73-46 65-110 7-63-57-96-136-132-220-11-25-31-37-54-37-36-1-56 32-56 68 32 142 118 264 224 332 15 16 24 24 21 38" id="ap"/><g id="j"><use transform="matrix(0.018,0,0,0.018,0,0)" xlink:href="#an"/><use transform="matrix(0.018,0,0,0.018,10.872,0)" xlink:href="#W"/><use transform="matrix(0.018,0,0,0.018,22.302,0)" xlink:href="#V"/><use transform="matrix(0.018,0,0,0.018,33.426,0)" xlink:href="#T"/><use transform="matrix(0.018,0,0,0.018,45.414,0)" xlink:href="#ao"/><use transform="matrix(0.018,0,0,0.018,56.826,0)" xlink:href="#af"/><use transform="matrix(0.018,0,0,0.018,69.768,0)" xlink:href="#am"/><use transform="matrix(0.018,0,0,0.018,84.222,0)" xlink:href="#V"/><use transform="matrix(0.018,0,0,0.018,95.34599999999999,0)" xlink:href="#ap"/></g><path fill="#333" d="M330-158c82-22 193-18 286-31 38 11 58 81 24 113-25 24-71 25-116 25-135 0-238 34-358 47C61 7 4-52 15-159c12-113 37-213 32-340-2-59 2-121-2-178-2-44 35-62 81-61 104-31 222-52 345-64 68-7 103 34 111 94 2 12-3 22-9 31-33 14-62 15-103 16-100 2-196 10-270 40h-8c-18 23-11 79-15 106-1 13 5 22 16 25 82-10 176-25 264-12 44 7 78 26 71 72-7 49-76 30-125 30-78 0-138 22-210 29-24 1-35 28-36 52-2 41-10 83-8 126-19 84 122 51 181 35" id="aq"/><path fill="#333" d="M635-31c28-53 7-115-31-143-7-19-67-63-88-82-39-36-80-78-117-115 1-16 41-65 118-148l-10 11c30-36 53-67 85-95 54-48 78-89 78-117s-20-70-52-70c-36 0-116 78-245 230-22 26-38 59-67 71-30 12-85-104-102-151-13-36-72-158-75-157-34-47-96-35-89 35 8 88 69 162 101 236 14 20 74 122 77 140-20 61-139 209-182 265-18 23-24 44-24 60C11-36 45 1 69 0c45-2 96-97 124-134 67-89 109-132 124-131 48 2 103 85 141 115 20 16 39 33 56 52 49 58 88 82 121 67" id="ar"/><g id="k"><use transform="matrix(0.018,0,0,0.018,0,0)" xlink:href="#aq"/><use transform="matrix(0.018,0,0,0.018,11.988,0)" xlink:href="#ar"/><use transform="matrix(0.018,0,0,0.018,24.156,0)" xlink:href="#W"/><use transform="matrix(0.018,0,0,0.018,35.586,0)" xlink:href="#ad"/><use transform="matrix(0.018,0,0,0.018,46.943999999999996,0)" xlink:href="#af"/><use transform="matrix(0.018,0,0,0.018,59.885999999999996,0)" xlink:href="#ak"/></g><path fill="#333" d="M722-498c18-70 6-160 6-241 0-38 16-57 49-57 55 0 82 64 82 193 1 204-63 347-126 491-54 125-124 110-196 9-30-42-54-91-82-146-27-53-43-79-49-79-8-17-88 136-114 182C269-106 193 9 170-1 96-15 86-47 66-129 33-267 17-480 18-657c0-70 18-105 54-105 39 0 66 36 68 87 4 137-4 277 12 406 12 100 67-12 84-47 47-96 102-197 139-285 18-41 78-38 96-4 52 97 51 251 110 344 50 78 71 31 104-70 17-53 22-108 37-167" id="as"/><g id="l"><use transform="matrix(0.018,0,0,0.018,0,0)" xlink:href="#ae"/><use transform="matrix(0.018,0,0,0.018,11.357999999999999,0)" xlink:href="#aj"/><use transform="matrix(0.018,0,0,0.018,21.096,0)" xlink:href="#am"/><use transform="matrix(0.018,0,0,0.018,35.55,0)" xlink:href="#as"/></g><path fill="#333" d="M81-140c34 0 77 28 77 61 0 38-43 81-82 81C34 2 7-30 9-72c2-44 21-68 72-68" id="at"/><path fill="#333" d="M629-645c28 177 9 401 28 582 3 29-18 50-47 50-97 0-67-194-71-306-1-24-4-66-3-92 1-39-15-57-30-33-49 79-88 161-139 243-9 15-21 23-34 23-33 0-70-69-89-115-10-23-57-152-73-152-28 0-27 119-31 162-9 93-16 174-27 265-2 3-35 21-48 20-71-3-50-117-43-176 24-211 38-410 84-595 39-67 121 2 138 59 22 73 63 167 84 249 7 23 13 34 20 34 17 0 54-75 107-225 17-48 42-155 115-96 31 25 52 57 59 103" id="au"/><g id="m"><use transform="matrix(0.018,0,0,0.018,0,0)" xlink:href="#aa"/><use transform="matrix(0.018,0,0,0.018,6.119999999999999,0)" xlink:href="#W"/><use transform="matrix(0.018,0,0,0.018,17.549999999999997,0)" xlink:href="#Y"/><use transform="matrix(0.018,0,0,0.018,29.087999999999994,0)" xlink:href="#ag"/><use transform="matrix(0.018,0,0,0.018,39.959999999999994,0)" xlink:href="#T"/><use transform="matrix(0.018,0,0,0.018,51.94799999999999,0)" xlink:href="#ar"/><use transform="matrix(0.018,0,0,0.018,64.11599999999999,0)" xlink:href="#at"/><use transform="matrix(0.018,0,0,0.018,67.21199999999999,0)" xlink:href="#aj"/><use transform="matrix(0.018,0,0,0.018,76.94999999999999,0)" xlink:href="#af"/><use transform="matrix(0.018,0,0,0.018,89.89199999999998,0)" xlink:href="#au"/><use transform="matrix(0.018,0,0,0.018,101.98799999999999,0)" xlink:href="#X"/><use transform="matrix(0.018,0,0,0.018,113.05799999999998,0)" xlink:href="#aa"/></g><path fill="#333" d="M507-712c85 21 58 156 75 252 15 28 37 66 16 97-49 73-23 203-39 323-4 28-48 49-75 23-22-21-25-21-31-66-9-66 6-122 8-189 2-76-65-30-115-24-69 8-187 40-227 40-73 0-140-72-111-150 27-73 71-119 103-192 19-43 54-103 78-153 18-39 24-47 54-51 29-4 54 45 50 73-11 77-60 137-90 200-39 83-63 123-63 125 3 35 44 12 70 11 65-16 127-28 196-43 38-8 57-22 57-42 2-69-19-156 5-210 7-17 22-24 39-24" id="av"/><path fill="#333" d="M760-689c54 66 114 194 89 305-22 96-60 182-130 233C644-96 571-43 466-22 362-1 196 2 130-53 83-92 15-170 14-243c-3-132 48-208 100-291 87-138 222-257 433-251 99 3 168 41 213 96zM147-248c0 125 211 119 317 79 118-45 205-117 253-230 30-71-7-171-46-201-79-58-137-52-237-20-103 33-177 98-233 203-36 66-54 122-54 169" id="aw"/><g id="n"><use transform="matrix(0.018,0,0,0.018,0,0)" xlink:href="#av"/><use transform="matrix(0.018,0,0,0.018,11.159999999999998,0)" xlink:href="#aw"/><use transform="matrix(0.018,0,0,0.018,26.784,0)" xlink:href="#av"/></g><path fill="#333" d="M39-49c-7-93 9-204-6-289-18-30-12-41 1-77 37-27 19-97 25-162 2-23-27-37-49-40-11-18-14-56 0-71 17-39 273-99 376-109 72-7 163-32 165 45 1 65-62 51-115 66-63 18-176 24-229 55-41 23-20 107-25 176 83-2 166-25 259-33 74-6 91 70 44 97-80 23-228 35-304 57-18 6-27 18-27 35-9 45 6 274-42 299-35 2-92-5-73-49" id="ax"/><g id="o"><use transform="matrix(0.018,0,0,0.018,0,0)" xlink:href="#ax"/><use transform="matrix(0.018,0,0,0.018,9.953999999999999,0)" xlink:href="#W"/><use transform="matrix(0.018,0,0,0.018,21.383999999999997,0)" xlink:href="#X"/><use transform="matrix(0.018,0,0,0.018,32.454,0)" xlink:href="#T"/></g><g id="p"><use transform="matrix(0.018,0,0,0.018,0,0)" xlink:href="#ae"/><use transform="matrix(0.018,0,0,0.018,11.357999999999999,0)" xlink:href="#aj"/><use transform="matrix(0.018,0,0,0.018,21.096,0)" xlink:href="#am"/><use transform="matrix(0.018,0,0,0.018,35.55,0)" xlink:href="#as"/></g><g id="q"><use transform="matrix(0.018,0,0,0.018,0,0)" xlink:href="#ax"/><use transform="matrix(0.018,0,0,0.018,9.953999999999999,0)" xlink:href="#W"/><use transform="matrix(0.018,0,0,0.018,21.383999999999997,0)" xlink:href="#X"/><use transform="matrix(0.018,0,0,0.018,32.454,0)" xlink:href="#T"/></g><g id="r"><use transform="matrix(0.018,0,0,0.018,0,0)" xlink:href="#ai"/><use transform="matrix(0.018,0,0,0.018,10.152,0)" xlink:href="#R"/><use transform="matrix(0.018,0,0,0.018,20.718,0)" xlink:href="#af"/><use transform="matrix(0.018,0,0,0.018,33.66,0)" xlink:href="#aj"/></g><path fill="#333" d="M247-706c69-7 55 87 47 144 7 36 7 40 59 43 50 3 122-1 122 59 0 38-26 67-57 68-54 2-108-13-130 27-29 34-30 125-56 158-43 28-93 0-87-69-5-35 30-117-28-110-65 8-119-7-115-66 3-51 46-54 113-53 79 2 72-25 75-84 4-71 5-112 57-117" id="ay"/><use transform="matrix(0.018,0,0,0.018,0,0)" xlink:href="#ay" id="s"/><path fill="#333" d="M694-661c-2 64-88 115-111 165 1 17 42 36 59 47 42 29 76 115 53 188-30 95-82 137-179 194C386 10 245 0 121-52 96-78 5-94 12-147c-3-30 39-60 66-58 10-5 95 37 147 52 50 14 141 11 184-13 64-35 159-87 167-152 7-58-74-71-141-61-44 7-88 21-136 26-61 7-96-80-43-117 65-45 147-89 217-133 33-21 50-38 50-49 0-57-104-57-169-46-78 14-147 44-200 90-12 10-25 23-51 23-35 0-77-40-55-77 74-122 237-149 435-148 101 1 214 52 211 149" id="az"/><path fill="#333" d="M49-77C44-40 70-4 106-4c52 0 58-115 69-176 33-185 88-339 106-531 5-55-37-120-88-84-58 41-108 94-156 139-9 8-27 43-27 58-1 28 35 54 60 54 15-1 48-23 43 15" id="aA"/><g id="t"><use transform="matrix(0.018,0,0,0.018,0,0)" xlink:href="#az"/><use transform="matrix(0.018,0,0,0.018,12.851999999999999,0)" xlink:href="#aw"/><use transform="matrix(0.018,0,0,0.018,28.476,0)" xlink:href="#aA"/></g><g id="u"><use transform="matrix(0.018,0,0,0.018,0,0)" xlink:href="#aq"/><use transform="matrix(0.018,0,0,0.018,11.988,0)" xlink:href="#Y"/><use transform="matrix(0.018,0,0,0.018,23.526,0)" xlink:href="#ag"/></g><path fill="#fff" d="M238-179c0 84-86 86-175 82L45 0H11l48-248c82 0 179-12 179 69zm-34 1c0-53-64-42-116-43l-19 98c63 0 135 9 135-55" id="aB"/><path fill="#fff" d="M66-151c12-25 30-51 66-40l-6 26C45-176 58-65 38 0H6l36-190h30" id="aC"/><path fill="#fff" d="M30-147c31-64 166-65 159 27C183-49 158 1 86 4 9 8 1-88 30-147zM88-20c53 0 68-48 68-100 0-31-11-51-44-50-52 1-68 46-68 97 0 32 13 53 44 53" id="aD"/><path fill="#fff" d="M44-68c0 29 11 47 38 47 30 0 42-19 51-41l28 9C148-21 126 4 82 4 31 4 10-29 12-85c3-77 74-140 146-93 12 8 15 23 18 40l-31 5c-1-22-13-36-36-36-52 0-65 49-65 101" id="aE"/><path fill="#fff" d="M111-194c62-3 86 47 72 106H45c-7 38 6 69 45 68 27-1 43-14 53-32l24 11C152-15 129 4 87 4 38 3 12-23 12-71c0-70 32-119 99-123zm44 81c14-66-71-72-95-28-4 8-8 17-11 28h106" id="aF"/><path fill="#fff" d="M55-144c13 50 104 24 104 88C159 21 15 23 1-39l26-10c6 40 102 42 102-4-13-50-104-23-104-87 0-71 143-71 148-8l-29 4c-5-35-85-37-89 0" id="aG"/><g id="v"><use transform="matrix(0.05,0,0,0.05,0,0)" xlink:href="#aB"/><use transform="matrix(0.05,0,0,0.05,12,0)" xlink:href="#aC"/><use transform="matrix(0.05,0,0,0.05,17.95,0)" xlink:href="#aD"/><use transform="matrix(0.05,0,0,0.05,27.950000000000003,0)" xlink:href="#aE"/><use transform="matrix(0.05,0,0,0.05,36.95,0)" xlink:href="#aF"/><use transform="matrix(0.05,0,0,0.05,46.95,0)" xlink:href="#aG"/><use transform="matrix(0.05,0,0,0.05,55.95,0)" xlink:href="#aG"/></g><path fill="#fff" d="M51-54c-9 22 5 41 31 30L79-1C43 14 10-4 19-52l22-115H19l5-23h22l19-43h21l-9 43h35l-4 23H73" id="aH"/><path fill="#fff" d="M67-162c32-53 139-36 121 50C175-51 163 2 97 4 68 4 52-11 42-31 38 6 28 39 22 75H-9l50-265h29c-1 10 0 20-3 28zm89 36c0-26-10-43-35-43-54 0-67 50-69 103-1 29 14 45 42 46 53 0 62-58 62-106" id="aI"/><g id="w"><use transform="matrix(0.05,0,0,0.05,0,0)" xlink:href="#aG"/><use transform="matrix(0.05,0,0,0.05,9,0)" xlink:href="#aH"/><use transform="matrix(0.05,0,0,0.05,14,0)" xlink:href="#aF"/><use transform="matrix(0.05,0,0,0.05,24,0)" xlink:href="#aI"/></g><path fill="#333" d="M248-139C247-14 144 9 11 0l48-248c105-6 190 8 189 109zm-34 0c1-70-52-87-126-82L50-27c98 7 163-21 164-112" id="aJ"/><path fill="#333" d="M111-194c62-3 86 47 72 106H45c-7 38 6 69 45 68 27-1 43-14 53-32l24 11C152-15 129 4 87 4 38 3 12-23 12-71c0-70 32-119 99-123zm44 81c14-66-71-72-95-28-4 8-8 17-11 28h106" id="aK"/><path fill="#333" d="M44-68c0 29 11 47 38 47 30 0 42-19 51-41l28 9C148-21 126 4 82 4 31 4 10-29 12-85c3-77 74-140 146-93 12 8 15 23 18 40l-31 5c-1-22-13-36-36-36-52 0-65 49-65 101" id="aL"/><path fill="#333" d="M50-231l6-30h32l-6 30H50zM6 0l37-190h31L37 0H6" id="aM"/><path fill="#333" d="M55-144c13 50 104 24 104 88C159 21 15 23 1-39l26-10c6 40 102 42 102-4-13-50-104-23-104-87 0-71 143-71 148-8l-29 4c-5-35-85-37-89 0" id="aN"/><path fill="#333" d="M30-147c31-64 166-65 159 27C183-49 158 1 86 4 9 8 1-88 30-147zM88-20c53 0 68-48 68-100 0-31-11-51-44-50-52 1-68 46-68 97 0 32 13 53 44 53" id="aO"/><path fill="#333" d="M67-158c22-48 132-52 116 29L158 0h-32l25-140c3-38-53-32-70-12C52-117 51-52 38 0H6l36-190h30" id="aP"/><g id="x"><use transform="matrix(0.05,0,0,0.05,0,0)" xlink:href="#aJ"/><use transform="matrix(0.05,0,0,0.05,12.950000000000001,0)" xlink:href="#aK"/><use transform="matrix(0.05,0,0,0.05,22.950000000000003,0)" xlink:href="#aL"/><use transform="matrix(0.05,0,0,0.05,31.950000000000003,0)" xlink:href="#aM"/><use transform="matrix(0.05,0,0,0.05,35.900000000000006,0)" xlink:href="#aN"/><use transform="matrix(0.05,0,0,0.05,44.900000000000006,0)" xlink:href="#aM"/><use transform="matrix(0.05,0,0,0.05,48.85000000000001,0)" xlink:href="#aO"/><use transform="matrix(0.05,0,0,0.05,58.85,0)" xlink:href="#aP"/></g><path fill="#333" d="M238-179c0 84-86 86-175 82L45 0H11l48-248c82 0 179-12 179 69zm-34 1c0-53-64-42-116-43l-19 98c63 0 135 9 135-55" id="aQ"/><path fill="#333" d="M66-151c12-25 30-51 66-40l-6 26C45-176 58-65 38 0H6l36-190h30" id="aR"/><g id="y"><use transform="matrix(0.05,0,0,0.05,0,0)" xlink:href="#aQ"/><use transform="matrix(0.05,0,0,0.05,12,0)" xlink:href="#aR"/><use transform="matrix(0.05,0,0,0.05,17.95,0)" xlink:href="#aO"/><use transform="matrix(0.05,0,0,0.05,27.950000000000003,0)" xlink:href="#aL"/><use transform="matrix(0.05,0,0,0.05,36.95,0)" xlink:href="#aK"/><use transform="matrix(0.05,0,0,0.05,46.95,0)" xlink:href="#aN"/><use transform="matrix(0.05,0,0,0.05,55.95,0)" xlink:href="#aN"/></g><path fill="#333" d="M51-54c-9 22 5 41 31 30L79-1C43 14 10-4 19-52l22-115H19l5-23h22l19-43h21l-9 43h35l-4 23H73" id="aS"/><path fill="#333" d="M67-162c32-53 139-36 121 50C175-51 163 2 97 4 68 4 52-11 42-31 38 6 28 39 22 75H-9l50-265h29c-1 10 0 20-3 28zm89 36c0-26-10-43-35-43-54 0-67 50-69 103-1 29 14 45 42 46 53 0 62-58 62-106" id="aT"/><g id="z"><use transform="matrix(0.05,0,0,0.05,0,0)" xlink:href="#aN"/><use transform="matrix(0.05,0,0,0.05,9,0)" xlink:href="#aS"/><use transform="matrix(0.05,0,0,0.05,14,0)" xlink:href="#aK"/><use transform="matrix(0.05,0,0,0.05,24,0)" xlink:href="#aT"/></g><path fill="#333" d="M63-220v92h138v28H63V0H30v-248h175v28H63" id="aU"/><path fill="#333" d="M84 4C-5 8 30-112 23-190h32v120c0 31 7 50 39 49 72-2 45-101 50-169h31l1 190h-30c-1-10 1-25-2-33-11 22-28 36-60 37" id="aV"/><path fill="#333" d="M59-47c-2 24 18 29 38 22v24C64 9 27 4 27-40v-127H5v-23h24l9-43h21v43h35v23H59v120" id="aW"/><path fill="#333" d="M114-163C36-179 61-72 57 0H25l-1-190h30c1 12-1 29 2 39 6-27 23-49 58-41v29" id="aX"/><path fill="#333" d="M100-194c63 0 86 42 84 106H49c0 40 14 67 53 68 26 1 43-12 49-29l28 8c-11 28-37 45-77 45C44 4 14-33 15-96c1-61 26-98 85-98zm52 81c6-60-76-77-97-28-3 7-6 17-6 28h103" id="aY"/><g id="A"><use transform="matrix(0.05,0,0,0.05,0,0)" xlink:href="#aU"/><use transform="matrix(0.05,0,0,0.05,10.950000000000001,0)" xlink:href="#aV"/><use transform="matrix(0.05,0,0,0.05,20.950000000000003,0)" xlink:href="#aW"/><use transform="matrix(0.05,0,0,0.05,25.950000000000003,0)" xlink:href="#aV"/><use transform="matrix(0.05,0,0,0.05,35.95,0)" xlink:href="#aX"/><use transform="matrix(0.05,0,0,0.05,41.900000000000006,0)" xlink:href="#aY"/></g><path fill="#666" d="M119 0H84L31-248h34l41 218 126-218h36" id="aZ"/><path fill="#666" d="M165-48c-4 18 1 34 23 27l-3 20c-29 8-62 0-52-35h-2C116-14 99 4 63 4 30 4 8-16 8-49c0-68 71-67 138-67 10-26 0-56-31-54-26 1-42 9-47 31l-32-5c8-67 160-71 144 15-5 28-9 54-15 81zM42-50c3 52 80 24 89-6 7-12 7-24 11-38-47 1-103-4-100 44" id="ba"/><path fill="#666" d="M6 0l50-261h32L37 0H6" id="bb"/><path fill="#666" d="M67 3c-93-2-31-127-26-193h32L48-50c-3 39 53 32 70 12 30-34 30-101 43-152h32L157 0h-30c1-10 6-24 4-33-14 20-29 37-64 36" id="bc"/><path fill="#666" d="M111-194c62-3 86 47 72 106H45c-7 38 6 69 45 68 27-1 43-14 53-32l24 11C152-15 129 4 87 4 38 3 12-23 12-71c0-70 32-119 99-123zm44 81c14-66-71-72-95-28-4 8-8 17-11 28h106" id="bd"/><g id="B"><use transform="matrix(0.05,0,0,0.05,0,0)" xlink:href="#aZ"/><use transform="matrix(0.05,0,0,0.05,11.35,0)" xlink:href="#ba"/><use transform="matrix(0.05,0,0,0.05,21.35,0)" xlink:href="#bb"/><use transform="matrix(0.05,0,0,0.05,25.3,0)" xlink:href="#bc"/><use transform="matrix(0.05,0,0,0.05,35.3,0)" xlink:href="#bd"/></g><path fill="#333" d="M130 0H70L30-248h54l24 206c31-72 69-137 103-206h54" id="be"/><path fill="#333" d="M166-52c-4 17 5 29 24 23l-3 27c-30 11-74 1-67-34C105-15 91 4 56 4 23 4 3-15 2-49c0-64 63-67 128-67 10-22 3-53-29-45-13 3-22 10-25 24l-46-5c5-64 156-77 153 0-1 33-11 60-17 90zM97-88c-44-9-64 57-19 57 31 0 42-28 47-57H97" id="bf"/><path fill="#333" d="M6 0l51-261h49L55 0H6" id="bg"/><path fill="#333" d="M69 3c-96 0-34-126-28-193h49L65-57c6 42 62 18 71-6 14-38 17-86 28-127h50L178 0h-47c0-11 4-26 3-33-14 20-30 37-65 36" id="bh"/><path fill="#333" d="M114-194c63-2 87 48 72 110H63c-3 28 1 55 31 54 21-1 32-13 37-29l44 13C160-14 137 4 91 4 41 4 11-22 11-73c0-71 33-119 103-121zm30 77c14-47-50-61-67-22-3 6-6 13-8 22h75" id="bi"/><g id="C"><use transform="matrix(0.06172839506172839,0,0,0.06172839506172839,0,0)" xlink:href="#be"/><use transform="matrix(0.06172839506172839,0,0,0.06172839506172839,14.012345679012345,0)" xlink:href="#bf"/><use transform="matrix(0.06172839506172839,0,0,0.06172839506172839,26.358024691358025,0)" xlink:href="#bg"/><use transform="matrix(0.06172839506172839,0,0,0.06172839506172839,32.53086419753087,0)" xlink:href="#bh"/><use transform="matrix(0.06172839506172839,0,0,0.06172839506172839,46.04938271604939,0)" xlink:href="#bi"/></g><path fill="#fff" d="M63-220v92h138v28H63V0H30v-248h175v28H63" id="bj"/><path fill="#fff" d="M84 4C-5 8 30-112 23-190h32v120c0 31 7 50 39 49 72-2 45-101 50-169h31l1 190h-30c-1-10 1-25-2-33-11 22-28 36-60 37" id="bk"/><path fill="#fff" d="M59-47c-2 24 18 29 38 22v24C64 9 27 4 27-40v-127H5v-23h24l9-43h21v43h35v23H59v120" id="bl"/><path fill="#fff" d="M114-163C36-179 61-72 57 0H25l-1-190h30c1 12-1 29 2 39 6-27 23-49 58-41v29" id="bm"/><path fill="#fff" d="M100-194c63 0 86 42 84 106H49c0 40 14 67 53 68 26 1 43-12 49-29l28 8c-11 28-37 45-77 45C44 4 14-33 15-96c1-61 26-98 85-98zm52 81c6-60-76-77-97-28-3 7-6 17-6 28h103" id="bn"/><g id="D"><use transform="matrix(0.04938271604938272,0,0,0.04938271604938272,0,0)" xlink:href="#bj"/><use transform="matrix(0.04938271604938272,0,0,0.04938271604938272,10.814814814814815,0)" xlink:href="#bk"/><use transform="matrix(0.04938271604938272,0,0,0.04938271604938272,20.69135802469136,0)" xlink:href="#bl"/><use transform="matrix(0.04938271604938272,0,0,0.04938271604938272,25.629629629629633,0)" xlink:href="#bk"/><use transform="matrix(0.04938271604938272,0,0,0.04938271604938272,35.50617283950618,0)" xlink:href="#bm"/><use transform="matrix(0.04938271604938272,0,0,0.04938271604938272,41.38271604938272,0)" xlink:href="#bn"/></g><path fill="#fff" d="M135-143c-3-34-86-38-87 0 15 53 115 12 119 90S17 21 10-45l28-5c4 36 97 45 98 0-10-56-113-15-118-90-4-57 82-63 122-42 12 7 21 19 24 35" id="bo"/><path fill="#fff" d="M141-36C126-15 110 5 73 4 37 3 15-17 15-53c-1-64 63-63 125-63 3-35-9-54-41-54-24 1-41 7-42 31l-33-3c5-37 33-52 76-52 45 0 72 20 72 64v82c-1 20 7 32 28 27v20c-31 9-61-2-59-35zM48-53c0 20 12 33 32 33 41-3 63-29 60-74-43 2-92-5-92 41" id="bp"/><g id="E"><use transform="matrix(0.04938271604938272,0,0,0.04938271604938272,0,0)" xlink:href="#bo"/><use transform="matrix(0.04938271604938272,0,0,0.04938271604938272,8.88888888888889,0)" xlink:href="#bl"/><use transform="matrix(0.04938271604938272,0,0,0.04938271604938272,13.827160493827162,0)" xlink:href="#bp"/><use transform="matrix(0.04938271604938272,0,0,0.04938271604938272,23.703703703703706,0)" xlink:href="#bl"/><use transform="matrix(0.04938271604938272,0,0,0.04938271604938272,28.641975308641978,0)" xlink:href="#bn"/></g><path fill="#fff" d="M115-194c55 1 70 41 70 98S169 2 115 4C84 4 66-9 55-30l1 105H24l-1-265h31l2 30c10-21 28-34 59-34zm-8 174c40 0 45-34 45-75s-6-73-45-74c-42 0-51 32-51 76 0 43 10 73 51 73" id="bq"/><path fill="#fff" d="M100-194c62-1 85 37 85 99 1 63-27 99-86 99S16-35 15-95c0-66 28-99 85-99zM99-20c44 1 53-31 53-75 0-43-8-75-51-75s-53 32-53 75 10 74 51 75" id="br"/><path fill="#fff" d="M96-169c-40 0-48 33-48 73s9 75 48 75c24 0 41-14 43-38l32 2c-6 37-31 61-74 61-59 0-76-41-82-99-10-93 101-131 147-64 4 7 5 14 7 22l-32 3c-4-21-16-35-41-35" id="bs"/><g id="F"><use transform="matrix(0.04938271604938272,0,0,0.04938271604938272,0,0)" xlink:href="#bq"/><use transform="matrix(0.04938271604938272,0,0,0.04938271604938272,9.876543209876544,0)" xlink:href="#bm"/><use transform="matrix(0.04938271604938272,0,0,0.04938271604938272,15.753086419753087,0)" xlink:href="#br"/><use transform="matrix(0.04938271604938272,0,0,0.04938271604938272,25.629629629629633,0)" xlink:href="#bs"/><use transform="matrix(0.04938271604938272,0,0,0.04938271604938272,34.51851851851852,0)" xlink:href="#bn"/><use transform="matrix(0.04938271604938272,0,0,0.04938271604938272,44.39506172839506,0)" xlink:href="#bo"/><use transform="matrix(0.04938271604938272,0,0,0.04938271604938272,53.28395061728394,0)" xlink:href="#bo"/></g><g id="G"><use transform="matrix(0.05,0,0,0.05,0,0)" xlink:href="#aJ"/><use transform="matrix(0.05,0,0,0.05,12.950000000000001,0)" xlink:href="#aK"/><use transform="matrix(0.05,0,0,0.05,22.950000000000003,0)" xlink:href="#aN"/><use transform="matrix(0.05,0,0,0.05,31.950000000000003,0)" xlink:href="#aL"/><use transform="matrix(0.05,0,0,0.05,40.95,0)" xlink:href="#aR"/><use transform="matrix(0.05,0,0,0.05,46.900000000000006,0)" xlink:href="#aM"/><use transform="matrix(0.05,0,0,0.05,50.85000000000001,0)" xlink:href="#aT"/><use transform="matrix(0.05,0,0,0.05,60.85,0)" xlink:href="#aS"/><use transform="matrix(0.05,0,0,0.05,65.85000000000001,0)" xlink:href="#aM"/><use transform="matrix(0.05,0,0,0.05,69.80000000000001,0)" xlink:href="#aO"/><use transform="matrix(0.05,0,0,0.05,79.80000000000001,0)" xlink:href="#aP"/></g><path fill="#333" d="M76-167L44 0H12l33-167H18l4-23h27c3-47 25-81 82-69l-4 24c-35-8-44 15-46 45h37l-5 23H76" id="bt"/><g id="H"><use transform="matrix(0.05,0,0,0.05,0,0)" xlink:href="#aO"/><use transform="matrix(0.05,0,0,0.05,10,0)" xlink:href="#bt"/></g><path fill="#333" d="M188 0h-37l-8-164L71 0H34L18-190h31l8 164 75-164h34l8 164 74-164h31" id="bu"/><path fill="#333" d="M67-158c15-20 31-36 64-36 94 0 33 127 27 194h-32l25-140c3-38-53-32-70-12C52-117 51-51 37 0H6l51-261h31" id="bv"/><path fill="#333" d="M165-48c-4 18 1 34 23 27l-3 20c-29 8-62 0-52-35h-2C116-14 99 4 63 4 30 4 8-16 8-49c0-68 71-67 138-67 10-26 0-56-31-54-26 1-42 9-47 31l-32-5c8-67 160-71 144 15-5 28-9 54-15 81zM42-50c3 52 80 24 89-6 7-12 7-24 11-38-47 1-103-4-100 44" id="bw"/><g id="I"><use transform="matrix(0.05,0,0,0.05,0,0)" xlink:href="#bu"/><use transform="matrix(0.05,0,0,0.05,12.950000000000001,0)" xlink:href="#bv"/><use transform="matrix(0.05,0,0,0.05,22.950000000000003,0)" xlink:href="#bw"/><use transform="matrix(0.05,0,0,0.05,32.95,0)" xlink:href="#aS"/></g><g id="J"><use transform="matrix(0.05,0,0,0.05,0,0)" xlink:href="#aS"/><use transform="matrix(0.05,0,0,0.05,5,0)" xlink:href="#bv"/><use transform="matrix(0.05,0,0,0.05,15,0)" xlink:href="#aK"/></g><path fill="#333" d="M103-194c29 0 47 14 56 36 2-11 5-23 8-32h30L160-5C157 61 82 97 21 62 9 55 4 45 1 30l28-7c7 42 83 31 92-3 4-16 9-38 13-55-13 20-29 36-62 36-40 0-60-25-60-64 0-71 23-131 91-131zm4 24c-53 0-58 54-61 104-2 27 10 44 36 44 49 0 65-50 67-102 1-29-15-46-42-46" id="bx"/><g id="K"><use transform="matrix(0.05,0,0,0.05,0,0)" xlink:href="#aT"/><use transform="matrix(0.05,0,0,0.05,10,0)" xlink:href="#aR"/><use transform="matrix(0.05,0,0,0.05,15.949999999999998,0)" xlink:href="#aO"/><use transform="matrix(0.05,0,0,0.05,25.950000000000003,0)" xlink:href="#bx"/><use transform="matrix(0.05,0,0,0.05,35.95,0)" xlink:href="#aR"/><use transform="matrix(0.05,0,0,0.05,41.900000000000006,0)" xlink:href="#aK"/><use transform="matrix(0.05,0,0,0.05,51.900000000000006,0)" xlink:href="#aN"/><use transform="matrix(0.05,0,0,0.05,60.900000000000006,0)" xlink:href="#aN"/></g><path fill="#333" d="M6 0l50-261h32L37 0H6" id="by"/><g id="L"><use transform="matrix(0.05,0,0,0.05,0,0)" xlink:href="#bv"/><use transform="matrix(0.05,0,0,0.05,10,0)" xlink:href="#bw"/><use transform="matrix(0.05,0,0,0.05,20,0)" xlink:href="#by"/><use transform="matrix(0.05,0,0,0.05,23.95,0)" xlink:href="#bt"/></g><path fill="#333" d="M133-28C103 26-5 8 13-77c13-62 24-115 90-117 29-1 46 15 56 35l19-102h32L160 0h-30zM45-64c-2 27 10 43 35 43 54-1 69-50 69-103 0-29-15-46-42-46-53-1-58 58-62 106" id="bz"/><path fill="#333" d="M67 3c-93-2-31-127-26-193h32L48-50c-3 39 53 32 70 12 30-34 30-101 43-152h32L157 0h-30c1-10 6-24 4-33-14 20-29 37-64 36" id="bA"/><g id="M"><use transform="matrix(0.05,0,0,0.05,0,0)" xlink:href="#bz"/><use transform="matrix(0.05,0,0,0.05,10,0)" xlink:href="#aO"/><use transform="matrix(0.05,0,0,0.05,20,0)" xlink:href="#aP"/><use transform="matrix(0.05,0,0,0.05,30,0)" xlink:href="#bA"/><use transform="matrix(0.05,0,0,0.05,40,0)" xlink:href="#aS"/></g><g id="N"><use transform="matrix(0.05,0,0,0.05,0,0)" xlink:href="#aN"/><use transform="matrix(0.05,0,0,0.05,9,0)" xlink:href="#bv"/><use transform="matrix(0.05,0,0,0.05,19,0)" xlink:href="#bw"/><use transform="matrix(0.05,0,0,0.05,29,0)" xlink:href="#aT"/><use transform="matrix(0.05,0,0,0.05,39,0)" xlink:href="#aK"/></g><g id="O"><use transform="matrix(0.05,0,0,0.05,0,0)" xlink:href="#aM"/><use transform="matrix(0.05,0,0,0.05,3.95,0)" xlink:href="#aN"/></g><g id="P"><use transform="matrix(0.05,0,0,0.05,0,0)" xlink:href="#aN"/><use transform="matrix(0.05,0,0,0.05,9,0)" xlink:href="#bv"/><use transform="matrix(0.05,0,0,0.05,19,0)" xlink:href="#aO"/><use transform="matrix(0.05,0,0,0.05,29,0)" xlink:href="#bu"/><use transform="matrix(0.05,0,0,0.05,41.95,0)" xlink:href="#aM"/><use transform="matrix(0.05,0,0,0.05,45.900000000000006,0)" xlink:href="#aP"/><use transform="matrix(0.05,0,0,0.05,55.900000000000006,0)" xlink:href="#bx"/></g></defs></g></svg>